HIERARCHY
ROOT RootJoint
{
    OFFSET   0.000000   0.000000   0.000000
    CHANNELS 6 Xposition Yposition Zposition Xrotation Yrotation Zrotation
    JOINT pelvis_lowerback
    {
        OFFSET   0.000000   0.093605   0.000000
        CHANNELS 3 Xrotation Yrotation Zrotation
        JOINT lowerback_torso
        {
            OFFSET   0.000000   0.100000   0.000000
            CHANNELS 3 Xrotation Yrotation Zrotation
            JOINT torso_head
            {
                OFFSET   0.000000   0.282350   0.000000
                CHANNELS 3 Xrotation Yrotation Zrotation
                End Site
                {
                    OFFSET   0.000000   0.192650   0.000000
                }
            }
            JOINT rTorso_Clavicle
            {
                OFFSET  -0.001000   0.157500   0.000000
                CHANNELS 3 Xrotation Yrotation Zrotation
                JOINT rShoulder
                {
                    OFFSET  -0.117647   0.000000   0.000000
                    CHANNELS 3 Xrotation Yrotation Zrotation
                    JOINT rElbow
                    {
                        OFFSET  -0.245000   0.000000   0.000000
                        CHANNELS 3 Xrotation Yrotation Zrotation
                        JOINT rWrist
                        {
                            OFFSET  -0.240000   0.000000   0.000000
                            CHANNELS 3 Xrotation Yrotation Zrotation
                            End Site
                            {
                                OFFSET  -0.116353  -0.002500   0.000000
                            }
                        }
                    }
                }
            }
            JOINT lTorso_Clavicle
            {
                OFFSET   0.001000   0.157500   0.000000
                CHANNELS 3 Xrotation Yrotation Zrotation
                JOINT lShoulder
                {
                    OFFSET   0.117647   0.000000   0.000000
                    CHANNELS 3 Xrotation Yrotation Zrotation
                    JOINT lElbow
                    {
                        OFFSET   0.245000   0.000000   0.000000
                        CHANNELS 3 Xrotation Yrotation Zrotation
                        JOINT lWrist
                        {
                            OFFSET   0.240000   0.000000   0.000000
                            CHANNELS 3 Xrotation Yrotation Zrotation
                            End Site
                            {
                                OFFSET   0.116353  -0.002500   0.000000
                            }
                        }
                    }
                }
            }
        }
    }
    JOINT rHip
    {
        OFFSET  -0.100000  -0.051395   0.000000
        CHANNELS 3 Xrotation Yrotation Zrotation
        JOINT rKnee
        {
            OFFSET   0.000000  -0.410000   0.000000
            CHANNELS 3 Xrotation Yrotation Zrotation
            JOINT rAnkle
            {
                OFFSET   0.000000  -0.390000   0.000000
                CHANNELS 3 Xrotation Yrotation Zrotation
                JOINT rToeJoint
                {
                    OFFSET   0.000000  -0.050000   0.130000
                    CHANNELS 3 Xrotation Yrotation Zrotation
                    End Site
                    {
                        OFFSET  -0.010000   0.002000   0.060000
                    }
                }
            }
        }
    }
    JOINT lHip
    {
        OFFSET   0.100000  -0.051395   0.000000
        CHANNELS 3 Xrotation Yrotation Zrotation
        JOINT lKnee
        {
            OFFSET   0.000000  -0.410000   0.000000
            CHANNELS 3 Xrotation Yrotation Zrotation
            JOINT lAnkle
            {
                OFFSET   0.000000  -0.390000   0.000000
                CHANNELS 3 Xrotation Yrotation Zrotation
                JOINT lToeJoint
                {
                    OFFSET   0.000000  -0.050000   0.130000
                    CHANNELS 3 Xrotation Yrotation Zrotation
                    End Site
                    {
                        OFFSET   0.010000   0.002000   0.060000
                    }
                }
            }
        }
    }
}
MOTION
Frames: 10
Frame Time:   0.008333
 -2.290502   0.894386   4.906640   5.917351   1.936144  -2.613630  22.921931   2.217136  -4.489763   4.387361   1.054996  -1.260624  -3.408482  -1.135492   1.400145   3.517086  -4.523981   0.959786   7.628197   2.371357  52.360477   0.001799  49.319556  -0.003426  -1.095517   5.531733   1.785799   7.625175   8.589204  -1.885824  15.448760   2.111459 -51.378619   0.000032 -39.631140  -0.001950  -1.337024  -3.842706  -0.353081 -12.554441  -2.126911  -1.780562  57.168678  -0.009063  -0.029436   5.349350   2.456027   6.041878 -20.577797  -0.014622  -0.040103 -22.129014  -2.327388   6.857398  30.204242   0.000113   0.000869 -14.544731   4.357371   0.060211  -1.983134  -0.000232  -0.003849
 -2.290577   0.893622   4.917031   5.765536   2.206555  -2.674962  23.205900   1.874949  -4.505924   4.357329   0.797941  -1.279423  -3.476531  -1.048656   1.321126   3.584523  -4.554917   1.137296   7.981058   2.349187  52.343041   0.001340  48.900913  -0.002942  -1.041272   5.621931   2.000336   7.164313   8.098190  -1.850415  14.724639   1.962895 -51.009474  -0.000190 -39.722978  -0.001362  -1.313840  -3.959878  -0.394067 -13.475173  -2.309105  -1.802138  58.938511  -0.007518  -0.022632   4.199493   2.073027   6.151550 -19.004626  -0.012080  -0.035715 -21.649519  -2.326710   6.922878  31.000306   0.000383   0.002382 -15.585791   4.100679   0.219030  -1.568961  -0.000902  -0.003142
 -2.290673   0.892952   4.927455   5.622245   2.494881  -2.766427  23.465548   1.565449  -4.460450   4.328852   0.557632  -1.257036  -3.542990  -0.962198   1.244443   3.673705  -4.602151   1.267218   8.337438   2.304256  52.298335   0.000961  48.485524  -0.002442  -0.979124   5.571249   2.221634   6.712897   7.633723  -1.774349  14.025820   1.816295 -50.638602  -0.000522 -39.826625  -0.000978  -1.299144  -4.173086  -0.361915 -14.450514  -2.505715  -1.786985  60.531363  -0.006106  -0.017016   3.113605   1.710391   6.246714 -17.626327  -0.010047  -0.031067 -21.095925  -2.337558   7.025958  31.636872   0.000542   0.003308 -16.576583   3.837848   0.373862  -1.187593  -0.001385  -0.002556
 -2.290761   0.892257   4.937952   5.475663   2.797099  -2.863501  23.701491   1.265851  -4.377285   4.305212   0.320923  -1.205555  -3.605123  -0.880026   1.175945   3.768830  -4.662328   1.364516   8.682073   2.248098  52.241045   0.000706  48.090889  -0.002118  -0.916242   5.466193   2.422512   6.291483   7.200336  -1.673658  13.371446   1.679974 -50.274158  -0.000854 -39.927282  -0.000733  -1.285183  -4.416553  -0.277792 -15.454165  -2.695145  -1.765601  61.987745  -0.004656  -0.012378   2.098507   1.370266   6.328963 -16.370568  -0.008258  -0.026510 -20.483582  -2.355470   7.141711  32.176317   0.000628   0.003848 -17.545178   3.575317   0.514746  -0.838211  -0.001687  -0.002070
 -2.290829   0.891478   4.948529   5.324151   3.104143  -2.955588  23.914510   0.975682  -4.269403   4.284537   0.088933  -1.133726  -3.663574  -0.803099   1.114702   3.865401  -4.731503   1.439986   9.011516   2.185385  52.177773   0.000518  47.718950  -0.001931  -0.854675   5.341137   2.598457   5.902723   6.798755  -1.558455  12.763301   1.555155 -49.920805  -0.001142 -40.021413  -0.000583  -1.270821  -4.658436  -0.161883 -16.471358  -2.870233  -1.750591  63.324094  -0.003253  -0.008632   1.150239   1.051340   6.399853 -15.223675  -0.006671  -0.022269 -19.823722  -2.386709   7.261348  32.649873   0.000636   0.004081 -18.506095   3.304843   0.638386  -0.517939  -0.001852  -0.001740
 -2.290867   0.890584   4.959178   5.169971   3.394145  -3.035690  24.104635   0.702206  -4.148860   4.263737  -0.132062  -1.050839  -3.719158  -0.731168   1.059278   3.960464  -4.804992   1.500296   9.323883   2.119878  52.112468   0.000353  47.369783  -0.001829  -0.794978   5.209400   2.753496   5.546031   6.428795  -1.436567  12.200126   1.441583 -49.582203  -0.001368 -40.108097  -0.000497  -1.256069  -4.887326  -0.026741 -17.496205  -3.026401  -1.748651  64.551161  -0.002085  -0.005771   0.264490   0.752452   6.460849 -14.175780  -0.005355  -0.018560 -19.121223  -2.447076   7.381230  33.071698   0.000529   0.003985 -19.469073   3.009656   0.744209  -0.224174  -0.001927  -0.001668
 -2.290870   0.889555   4.969884   5.016409   3.657851  -3.101098  24.272562   0.447660  -4.021155   4.240652  -0.339088  -0.961949  -3.772425  -0.663976   1.008782   4.052047  -4.879420   1.549760   9.618244   2.054174  52.047475   0.000186  47.042878  -0.001770  -0.737411   5.077790   2.891974   5.219412   6.088754  -1.313515  11.679323   1.338212 -49.260779  -0.001530 -40.187467  -0.000450  -1.241078  -5.100030   0.118742 -18.521406  -3.165162  -1.760432  65.676893  -0.001225  -0.003664  -0.562947   0.472516   6.513343 -13.218249  -0.004334  -0.015417 -18.384674  -2.532433   7.498691  33.452254   0.000346   0.003666 -20.436042   2.694503   0.830117   0.045017  -0.001929  -0.001771
 -2.290904   0.889687   4.980542   5.035306   3.951566  -3.195149  24.307506   0.184898  -3.841372   4.237611  -0.521084  -0.843442  -3.838339  -0.695091   0.898862   4.118985  -4.966558   1.609169   9.952930   2.063529  51.961629  -0.000921  46.464432  -0.000914  -0.684937   5.146111   3.046548   4.867250   5.895806  -1.221453  11.044049   1.292194 -49.127527  -0.004709 -40.819363  -0.002667  -1.267020  -4.959478   0.285250 -19.427142  -3.290737  -1.733455  65.351105  -0.001268  -0.003340  -1.501490   0.029221   6.487246 -12.417829  -0.002697  -0.012401 -17.603276  -2.601749   7.663628  33.303810   0.000311   0.002695 -20.891920   2.417021   0.546582   0.181560  -0.001338  -0.001557
 -2.290920   0.890287   4.991099   5.123663   4.200122  -3.286301  24.304884  -0.057056  -3.633894   4.217715  -0.694947  -0.727908  -3.896676  -0.725942   0.790211   4.202354  -5.064071   1.633415  10.286098   2.059195  51.873752  -0.001841  45.913614  -0.000207  -0.629364   5.146893   3.238434   4.523123   5.719198  -1.147654  10.436034   1.225663 -49.047319  -0.007039 -41.451242  -0.004292  -1.303295  -5.056296   0.402363 -20.392415  -3.386788  -1.724486  64.671810  -0.001588  -0.003405  -2.396258  -0.387863   6.454101 -11.690824  -0.001573  -0.009794 -16.821165  -2.647407   7.828380  32.973324   0.000355   0.001719 -21.127200   2.147966   0.312073   0.312357  -0.000927  -0.001408
 -2.290970   0.891048   5.001654   5.219709   4.439539  -3.387062  24.292876  -0.297299  -3.393454   4.201039  -0.871327  -0.601333  -3.949228  -0.754308   0.692687   4.293758  -5.173093   1.627872  10.610478   2.041560  51.778858  -0.002440  45.395976   0.000189  -0.574311   5.120305   3.427156   4.201517   5.553873  -1.080800   9.867944   1.156920 -48.986381  -0.008695 -42.050493  -0.005273  -1.339511  -5.234814   0.478828 -21.378693  -3.475557  -1.720433  63.922936  -0.001930  -0.003495  -3.237418  -0.777094   6.417471 -11.027350  -0.000783  -0.007614 -16.026203  -2.658961   8.006690  32.580511   0.000373   0.000795 -21.253013   1.917465   0.115924  -0.337122  -0.001260  -0.000661
